<svg width="64" height="64" viewBox="0 0 64 64" fill="none" xmlns="http://www.w3.org/2000/svg">
<path d="M32 0C49.6731 0 64 14.3269 64 32C64 49.6731 49.6731 64 32 64C14.3269 64 0 49.6731 0 32C0 14.3269 14.3269 0 32 0Z" fill="#1A365D"/>
<g clip-path="url(#clip0_21_637)">
<path d="M31.1469 19.2579C31.6625 18.9157 32.3375 18.9157 32.8531 19.2579L33.6875 19.8063C33.9687 19.9891 34.2969 20.0782 34.6297 20.0594L35.6281 19.9985C36.2469 19.961 36.8281 20.2985 37.1047 20.8516L37.5547 21.7469C37.7047 22.0469 37.9484 22.286 38.2437 22.436L39.1484 22.8907C39.7015 23.1672 40.039 23.7485 40.0015 24.3672L39.9406 25.3657C39.9219 25.6985 40.0109 26.0313 40.1937 26.3079L40.7469 27.1422C41.089 27.6579 41.089 28.3329 40.7469 28.8485L40.1937 29.6875C40.0109 29.9688 39.9219 30.2969 39.9406 30.6297L40.0015 31.6282C40.039 32.2469 39.7015 32.8282 39.1484 33.1047L38.2531 33.5547C37.9531 33.7047 37.714 33.9485 37.564 34.2438L37.1094 35.1485C36.8328 35.7016 36.2515 36.0391 35.6328 36.0016L34.6344 35.9407C34.3015 35.9219 33.9687 36.011 33.6922 36.1938L32.8578 36.7469C32.3422 37.0891 31.6672 37.0891 31.1515 36.7469L30.3125 36.1938C30.0312 36.011 29.7031 35.9219 29.3703 35.9407L28.3719 36.0016C27.7531 36.0391 27.1719 35.7016 26.8953 35.1485L26.4453 34.2532C26.2953 33.9532 26.0515 33.7141 25.7562 33.5641L24.8515 33.1094C24.2984 32.8329 23.9609 32.2516 23.9984 31.6329L24.0594 30.6344C24.0781 30.3016 23.989 29.9688 23.8062 29.6922L23.2578 28.8532C22.9156 28.3375 22.9156 27.6625 23.2578 27.1469L23.8062 26.3125C23.989 26.0313 24.0781 25.7032 24.0594 25.3704L23.9984 24.3719C23.9609 23.7532 24.2984 23.1719 24.8515 22.8954L25.7469 22.4454C26.0469 22.2907 26.2906 22.0469 26.4406 21.7469L26.8906 20.8516C27.1672 20.2985 27.7484 19.961 28.3672 19.9985L29.3656 20.0594C29.6984 20.0782 30.0312 19.9891 30.3078 19.8063L31.1469 19.2579ZM35.75 28C35.75 27.0055 35.3549 26.0517 34.6516 25.3484C33.9484 24.6451 32.9945 24.25 32 24.25C31.0054 24.25 30.0516 24.6451 29.3483 25.3484C28.6451 26.0517 28.25 27.0055 28.25 28C28.25 28.9946 28.6451 29.9484 29.3483 30.6517C30.0516 31.355 31.0054 31.75 32 31.75C32.9945 31.75 33.9484 31.355 34.6516 30.6517C35.3549 29.9484 35.75 28.9946 35.75 28ZM23.0609 39.7094L25.0812 34.9047C25.0906 34.9094 25.0953 34.9141 25.1 34.9235L25.55 35.8188C26.0984 36.9063 27.2375 37.5672 28.4562 37.4969L29.4547 37.436C29.464 37.436 29.4781 37.436 29.4875 37.4454L30.3219 37.9985C30.5609 38.1532 30.814 38.275 31.0765 38.3594L29.314 42.5454C29.2062 42.8032 28.9672 42.9766 28.6906 43C28.414 43.0235 28.1469 42.8969 27.9969 42.6625L26.4875 40.3516L23.8578 40.7407C23.5906 40.7782 23.3234 40.6704 23.1547 40.4594C22.9859 40.2485 22.9531 39.9579 23.0562 39.7094H23.0609ZM34.6859 42.5407L32.9234 38.3594C33.1859 38.275 33.439 38.1579 33.6781 37.9985L34.5125 37.4454C34.5219 37.4407 34.5312 37.436 34.5453 37.436L35.5437 37.4969C36.7625 37.5672 37.9015 36.9063 38.45 35.8188L38.9 34.9235C38.9047 34.9141 38.9094 34.9094 38.9187 34.9047L40.9437 39.7094C41.0469 39.9579 41.0094 40.2438 40.8453 40.4594C40.6812 40.675 40.4094 40.7829 40.1422 40.7407L37.5125 40.3516L36.0031 42.6579C35.8531 42.8922 35.5859 43.0188 35.3094 42.9954C35.0328 42.9719 34.7937 42.7938 34.6859 42.5407Z" fill="white"/>
</g>
<defs>
<clipPath id="clip0_21_637">
<path d="M23 19H41V43H23V19Z" fill="white"/>
</clipPath>
</defs>
</svg>
