<svg width="32" height="40" viewBox="0 0 32 40" fill="none" xmlns="http://www.w3.org/2000/svg">
<path d="M24 0C28.4183 0 32 3.58172 32 8V32C32 36.4183 28.4183 40 24 40H8C3.58172 40 0 36.4183 0 32V8C0 3.58172 3.58172 0 8 0H24Z" fill="#00A19C"/>
<g clip-path="url(#clip0_21_454)">
<path d="M9.80313 18.0312L10.0969 18.5437C10.3563 18.9969 10.7812 19.3312 11.2844 19.475L13.0938 19.9906C13.6312 20.1438 14 20.6344 14 21.1938V22.4406C14 22.7844 14.1937 23.0969 14.5 23.25C14.8063 23.4031 15 23.7156 15 24.0594V25.2781C15 25.7656 15.4656 26.1187 15.9344 25.9844C16.4375 25.8406 16.8281 25.4375 16.9563 24.9281L17.0437 24.5781C17.175 24.05 17.5188 23.5969 17.9906 23.3281L18.2437 23.1844C18.7125 22.9187 19 22.4188 19 21.8813V21.6219C19 21.225 18.8406 20.8438 18.5594 20.5625L18.4375 20.4406C18.1562 20.1594 17.775 20 17.3781 20H16.0312C15.6844 20 15.3406 19.9094 15.0375 19.7375L13.9594 19.1219C13.825 19.0437 13.7219 18.9187 13.6719 18.7719C13.5719 18.4719 13.7062 18.1469 13.9906 18.0062L14.175 17.9125C14.3813 17.8094 14.6219 17.7906 14.8406 17.8656L15.5656 18.1062C15.8219 18.1906 16.1031 18.0938 16.25 17.8719C16.3969 17.6531 16.3812 17.3625 16.2125 17.1594L15.7875 16.65C15.475 16.275 15.4781 15.7281 15.7969 15.3594L16.2875 14.7875C16.5625 14.4656 16.6063 14.0062 16.3969 13.6406L16.3219 13.5094C16.2125 13.5031 16.1062 13.5 15.9969 13.5C13.0969 13.5 10.6375 15.4031 9.80313 18.0312ZM22.5 20C22.5 18.85 22.2 17.7688 21.675 16.8281L20.875 17.15C20.3844 17.3469 20.1313 17.8938 20.2969 18.3938L20.825 19.9781C20.9344 20.3031 21.2 20.55 21.5312 20.6313L22.4406 20.8594C22.4781 20.5781 22.4969 20.2906 22.4969 20H22.5ZM8 20C8 17.8783 8.84285 15.8434 10.3431 14.3431C11.8434 12.8429 13.8783 12 16 12C18.1217 12 20.1566 12.8429 21.6569 14.3431C23.1571 15.8434 24 17.8783 24 20C24 22.1217 23.1571 24.1566 21.6569 25.6569C20.1566 27.1571 18.1217 28 16 28C13.8783 28 11.8434 27.1571 10.3431 25.6569C8.84285 24.1566 8 22.1217 8 20Z" fill="white"/>
</g>
<defs>
<clipPath id="clip0_21_454">
<path d="M8 12H24V28H8V12Z" fill="white"/>
</clipPath>
</defs>
</svg>
