<svg width="32" height="40" viewBox="0 0 32 40" fill="none" xmlns="http://www.w3.org/2000/svg">
<path d="M24 0C28.4183 0 32 3.58172 32 8V32C32 36.4183 28.4183 40 24 40H8C3.58172 40 0 36.4183 0 32V8C0 3.58172 3.58172 0 8 0H24Z" fill="#FF6B35"/>
<path d="M9.4875 21.3874L15.1344 26.6593C15.3688 26.878 15.6781 26.9999 16 26.9999C16.3219 26.9999 16.6313 26.878 16.8656 26.6593L22.5125 21.3874C23.4625 20.503 24 19.2624 24 17.9655V17.7843C24 15.5999 22.4219 13.7374 20.2688 13.378C18.8438 13.1405 17.3938 13.6062 16.375 14.6249L16 14.9999L15.625 14.6249C14.6062 13.6062 13.1562 13.1405 11.7313 13.378C9.57812 13.7374 8 15.5999 8 17.7843V17.9655C8 19.2624 8.5375 20.503 9.4875 21.3874Z" fill="white"/>
</svg>
