<svg width="64" height="64" viewBox="0 0 64 64" fill="none" xmlns="http://www.w3.org/2000/svg">
<path d="M32 0C49.6731 0 64 14.3269 64 32C64 49.6731 49.6731 64 32 64C14.3269 64 0 49.6731 0 32C0 14.3269 14.3269 0 32 0Z" fill="#00A19C"/>
<g clip-path="url(#clip0_21_613)">
<path d="M35.75 37C36.2 35.5047 37.1328 34.2297 38.0563 32.9594C38.3 32.6266 38.5438 32.2937 38.7781 31.9562C39.7063 30.6203 40.25 29.0031 40.25 27.2547C40.25 22.6938 36.5562 19 32 19C27.4438 19 23.75 22.6938 23.75 27.25C23.75 28.9984 24.2938 30.6203 25.2219 31.9516C25.4563 32.2891 25.7 32.6219 25.9437 32.9547C26.8719 34.225 27.8047 35.5047 28.25 36.9953H35.75V37ZM32 43C34.0719 43 35.75 41.3219 35.75 39.25V38.5H28.25V39.25C28.25 41.3219 29.9281 43 32 43ZM28.25 27.25C28.25 27.6625 27.9125 28 27.5 28C27.0875 28 26.75 27.6625 26.75 27.25C26.75 24.3484 29.0984 22 32 22C32.4125 22 32.75 22.3375 32.75 22.75C32.75 23.1625 32.4125 23.5 32 23.5C29.9281 23.5 28.25 25.1781 28.25 27.25Z" fill="white"/>
</g>
<defs>
<clipPath id="clip0_21_613">
<path d="M23 19H41V43H23V19Z" fill="white"/>
</clipPath>
</defs>
</svg>
