<svg width="38" height="38" viewBox="0 0 38 38" fill="none" xmlns="http://www.w3.org/2000/svg">
<g clip-path="url(#clip0_10_530)">
<path d="M35.0861 0H3.18696C2.45427 0 1.75157 0.291064 1.23348 0.809161C0.715381 1.32726 0.424316 2.02995 0.424316 2.76265V34.6617C0.424316 35.3944 0.715381 36.0971 1.23348 36.6152C1.75157 37.1333 2.45427 37.4244 3.18696 37.4244H35.0861C35.8188 37.4244 36.5215 37.1333 37.0396 36.6152C37.5577 36.0971 37.8487 35.3944 37.8487 34.6617V2.76265C37.8487 2.02995 37.5577 1.32726 37.0396 0.809161C36.5215 0.291064 35.8188 0 35.0861 0ZM11.5789 31.8809H5.95221V14.0082H11.5789V31.8809ZM8.76164 11.5314C8.12339 11.5278 7.50051 11.3352 6.97161 10.978C6.44271 10.6207 6.03149 10.1148 5.78985 9.52402C5.54821 8.93328 5.48698 8.28419 5.61388 7.65868C5.74079 7.03316 6.05014 6.45926 6.5029 6.00939C6.95567 5.55953 7.53154 5.25387 8.15786 5.13098C8.78418 5.00809 9.43286 5.07349 10.022 5.31892C10.6112 5.56435 11.1145 5.97881 11.4684 6.50999C11.8222 7.04118 12.0108 7.66528 12.0103 8.30354C12.0163 8.73085 11.9362 9.155 11.7748 9.55071C11.6135 9.94642 11.374 10.3056 11.0709 10.6068C10.7677 10.908 10.407 11.1451 10.0103 11.304C9.61356 11.4628 9.18891 11.5402 8.76164 11.5314ZM32.3182 31.8965H26.6942V22.1324C26.6942 19.2528 25.4701 18.3639 23.8899 18.3639C22.2214 18.3639 20.5841 19.6218 20.5841 22.2051V31.8965H14.9575V14.0212H20.3684V16.4979H20.4412C20.9843 15.3986 22.8868 13.5196 25.7897 13.5196C28.9292 13.5196 32.3208 15.383 32.3208 20.8407L32.3182 31.8965Z" fill="#0A66C2"/>
</g>
<defs>
<clipPath id="clip0_10_530">
<rect width="37.4244" height="37.4244" fill="white" transform="translate(0.424316)"/>
</clipPath>
</defs>
</svg>
