<svg width="16" height="17" viewBox="0 0 16 17" fill="none" xmlns="http://www.w3.org/2000/svg">
<g clip-path="url(#clip0_7_699)">
<g clip-path="url(#clip1_7_699)">
<path d="M8 16.5977C10.1217 16.5977 12.1566 15.7548 13.6569 14.2545C15.1571 12.7542 16 10.7194 16 8.59766C16 6.47592 15.1571 4.44109 13.6569 2.9408C12.1566 1.44051 10.1217 0.597656 8 0.597656C5.87827 0.597656 3.84344 1.44051 2.34315 2.9408C0.842855 4.44109 0 6.47592 0 8.59766C0 10.7194 0.842855 12.7542 2.34315 14.2545C3.84344 15.7548 5.87827 16.5977 8 16.5977ZM11.5312 7.12891L7.53125 11.1289C7.2375 11.4227 6.7625 11.4227 6.47188 11.1289L4.47188 9.12891C4.17813 8.83516 4.17813 8.36016 4.47188 8.06953C4.76562 7.77891 5.24062 7.77578 5.53125 8.06953L7 9.53828L10.4688 6.06641C10.7625 5.77266 11.2375 5.77266 11.5281 6.06641C11.8187 6.36016 11.8219 6.83516 11.5281 7.12578L11.5312 7.12891Z" fill="#FF5A3A"/>
</g>
</g>
<defs>
<clipPath id="clip0_7_699">
<rect width="16" height="16" fill="white" transform="translate(0 0.597656)"/>
</clipPath>
<clipPath id="clip1_7_699">
<path d="M0 0.597656H16V16.5977H0V0.597656Z" fill="white"/>
</clipPath>
</defs>
</svg>
