<svg width="224" height="57" viewBox="0 0 224 57" fill="none" xmlns="http://www.w3.org/2000/svg">
<path d="M25 21.95L15.88 0.529999H10.17V0.869999C11.59 0.869999 12.5 1.24 13.31 2.49L5.03 21.95C3.75 24.99 2.73 25.87 0 25.87V26.21H6.99001V25.87C4.25001 25.87 4.11999 24.99 5.39999 21.95L8.98 13.5H18.2L21.78 21.95C23.1 25.06 22.93 25.87 20.83 25.87V26.21H29.31V25.87C27.22 25.87 26.3 25.06 24.99 21.95H25ZM9.16 13.17L13.55 2.83C13.85 3.37 14.16 4.01 14.5 4.79L18.05 13.17H9.17H9.16Z" fill="#85CCFF"/>
<path d="M59.4702 21.31C59.4702 25.4 56.2301 25.87 51.8701 25.87H45.7601V4.79C45.7601 1.55 46.3001 0.869999 48.4001 0.869999V0.529999H40.1602V0.869999C42.2502 0.869999 42.8002 1.55 42.8002 4.79V21.95C42.8002 25.19 42.2602 25.87 40.1602 25.87V26.21H61.3701C60.6901 25.64 59.8202 23.64 59.8202 21.31H59.4801H59.4702Z" fill="#85CCFF"/>
<path d="M68.6701 5.43H69.0101C69.0101 1.34 72.2501 0.869999 76.6101 0.869999H77.3201V21.95C77.3201 25.19 76.7801 25.87 74.6801 25.87V26.21H82.9201V25.87C80.8301 25.87 80.2901 25.19 80.2901 21.95V0.869999H81.0001C85.3601 0.869999 88.6001 1.34 88.6001 5.43H88.9401C88.9401 3.1 89.8201 1.11 90.4901 0.529999H67.1201C67.8001 1.1 68.6701 3.1 68.6701 5.43Z" fill="#85CCFF"/>
<path d="M101.82 0.869999C103.92 0.869999 104.46 1.55 104.46 4.79V21.95C104.46 25.19 103.92 25.87 101.82 25.87V26.21H110.06V25.87C107.97 25.87 107.42 25.19 107.42 21.95V4.79C107.42 1.55 107.96 0.869999 110.06 0.869999V0.529999H101.82V0.869999Z" fill="#85CCFF"/>
<path d="M134.46 0C127.1 0 121.56 6.01 121.56 13.38C121.56 20.75 127.1 26.76 134.46 26.76C141.82 26.76 147.36 20.75 147.36 13.38C147.36 6.01 141.82 0 134.46 0ZM134.46 26.41C128.75 26.41 124.66 21.27 124.66 13.37C124.66 5.47 128.75 0.33 134.46 0.33C140.17 0.33 144.26 5.46 144.26 13.37C144.26 21.28 140.17 26.41 134.46 26.41Z" fill="#85CCFF"/>
<path d="M179 21.95L174.34 13.88C173.29 14.18 171.91 14.02 171.06 13.51C177.31 13.34 181.3 10.84 181.3 7.02C181.3 3.2 177.04 0.529999 170.42 0.529999H158.87V0.869999C160.96 0.869999 161.51 1.55 161.51 4.79V21.95C161.51 25.19 160.97 25.87 158.87 25.87V26.21H167.11V25.87C165.02 25.87 164.47 25.19 164.47 21.95V13.5H170.65L175.51 21.95C177.17 24.79 177.3 25.87 175.21 25.87V26.21H183.96V25.87C181.87 25.87 180.62 24.79 178.99 21.95H179ZM170.42 13.17H164.48V0.879999H170.42C175.15 0.879999 178.19 3.28 178.19 7.03C178.19 10.78 175.15 13.18 170.42 13.18V13.17Z" fill="#85CCFF"/>
<path d="M218.94 21.95L209.82 0.529999H204.11V0.869999C205.53 0.869999 206.44 1.24 207.25 2.49L198.97 21.95C197.69 24.99 196.67 25.87 193.94 25.87V26.21H200.93V25.87C198.19 25.87 198.06 24.99 199.34 21.95L202.92 13.5H212.14L215.72 21.95C217.04 25.06 216.87 25.87 214.77 25.87V26.21H223.25V25.87C221.16 25.87 220.24 25.06 218.93 21.95H218.94ZM203.1 13.17L207.49 2.83C207.79 3.37 208.1 4.01 208.44 4.79L211.99 13.17H203.11H203.1Z" fill="#85CCFF"/>
<path d="M50.7348 44.3C50.7348 42.88 52.2848 41.95 54.7948 41.95C57.5748 41.95 59.1749 43.63 59.1749 45.88H59.3649C59.3649 44.59 59.8449 43.49 60.2249 43.18C59.0849 42.49 57.1849 41.76 54.8049 41.76C51.0949 41.76 49.5148 43.27 49.5148 45.28C49.5148 50.26 59.5049 49.32 59.5049 53.42C59.5049 55 57.7349 56.33 54.7849 56.33C51.8349 56.33 49.5148 54.28 49.5148 52.02H49.3248C49.3248 53.31 48.8448 54.41 48.4648 54.72C49.6048 55.41 51.8749 56.51 54.7849 56.51C58.8449 56.51 60.7348 54.4 60.7348 52.43C60.7348 48.09 50.7448 48.67 50.7448 44.29L50.7348 44.3Z" fill="#85CCFF"/>
<path d="M76.945 42.25C78.455 42.25 78.365 42.85 77.265 44.41L74.185 48.85L71.095 44.41C70.035 42.88 69.865 42.25 71.025 42.25V42.06H66.145V42.25C67.305 42.25 68.065 42.88 69.125 44.41L72.595 49.4V53.87C72.595 55.66 72.295 56.03 71.145 56.03V56.22H75.695V56.03C74.535 56.03 74.245 55.66 74.245 53.87V49.1L77.505 44.4C78.605 42.83 79.335 42.24 80.845 42.24V42.05H76.965V42.24L76.945 42.25Z" fill="#85CCFF"/>
<path d="M87.7549 44.3C87.7549 42.88 89.3049 41.95 91.8149 41.95C94.5949 41.95 96.1949 43.63 96.1949 45.88H96.3849C96.3849 44.59 96.8649 43.49 97.2449 43.18C96.1049 42.49 94.2049 41.76 91.8249 41.76C88.1149 41.76 86.5349 43.27 86.5349 45.28C86.5349 50.26 96.5249 49.32 96.5249 53.42C96.5249 55 94.7549 56.33 91.8049 56.33C88.8549 56.33 86.5349 54.28 86.5349 52.02H86.3449C86.3449 53.31 85.8649 54.41 85.4849 54.72C86.6249 55.41 88.8949 56.51 91.8049 56.51C95.8649 56.51 97.7549 54.4 97.7549 52.43C97.7549 48.09 87.7649 48.67 87.7649 44.29L87.7549 44.3Z" fill="#85CCFF"/>
<path d="M104.295 44.77H104.485C104.485 42.51 106.275 42.25 108.675 42.25H109.065V53.88C109.065 55.67 108.765 56.04 107.615 56.04V56.23H112.165V56.04C111.005 56.04 110.715 55.67 110.715 53.88V42.25H111.105C113.505 42.25 115.295 42.51 115.295 44.77H115.485C115.485 43.48 115.965 42.38 116.345 42.07H103.445C103.815 42.39 104.305 43.49 104.305 44.77H104.295Z" fill="#85CCFF"/>
<path d="M129.045 42.25C131.445 42.25 133.235 42.51 133.235 44.77H133.425C133.425 43.48 133.905 42.38 134.285 42.07H122.585V42.26C123.745 42.26 124.035 42.63 124.035 44.42V53.89C124.035 55.68 123.735 56.05 122.585 56.05V56.24H134.285C133.915 55.92 133.425 54.82 133.425 53.54H133.235C133.235 55.8 131.445 56.06 129.045 56.06H125.675V49.24H127.705C129.495 49.24 129.865 50.28 129.865 51.81H130.055V46.48H129.865C129.865 48.01 129.495 49.05 127.705 49.05H125.675V42.27H129.045V42.25Z" fill="#85CCFF"/>
<path d="M148.475 52.69L143.255 42.07H140.165V42.26C141.675 42.26 141.995 42.63 141.995 44.42V53.89C141.995 55.68 141.675 56.05 140.165 56.05V56.24H144.005V56.05C142.495 56.05 142.175 55.68 142.175 53.89V43.64L147.615 54.58H147.815L153.255 42.56V53.89C153.255 55.68 152.955 56.05 151.805 56.05V56.24H156.355V56.05C155.195 56.05 154.905 55.68 154.905 53.89V44.42C154.905 42.63 155.205 42.26 156.355 42.26V42.07H153.265L148.475 52.69Z" fill="#85CCFF"/>
<path d="M164.785 44.3C164.785 42.88 166.335 41.95 168.845 41.95C171.625 41.95 173.225 43.63 173.225 45.88H173.415C173.415 44.59 173.895 43.49 174.275 43.18C173.135 42.49 171.235 41.76 168.855 41.76C165.145 41.76 163.565 43.27 163.565 45.28C163.565 50.26 173.555 49.32 173.555 53.42C173.555 55 171.785 56.33 168.835 56.33C165.885 56.33 163.565 54.28 163.565 52.02H163.375C163.375 53.31 162.895 54.41 162.515 54.72C163.655 55.41 165.925 56.51 168.835 56.51C172.895 56.51 174.785 54.4 174.785 52.43C174.785 48.09 164.795 48.67 164.795 44.29L164.785 44.3Z" fill="#85CCFF"/>
</svg>
