<svg width="196" height="96" viewBox="0 0 196 96" fill="none" xmlns="http://www.w3.org/2000/svg">
<path d="M193.988 39.0229H194.681C195.063 39.0229 195.373 39.3344 195.373 39.7186V85.1652C195.373 85.5493 195.063 85.8608 194.681 85.8608H193.988V39.0229Z" fill="#303030"/>
<path d="M1.38525 95.5994L0.692437 95.5994C0.309806 95.5994 -0.000377041 95.2879 -0.000377007 94.9038L-0.000374625 67.543C-0.000374591 67.1588 0.309809 66.8474 0.69244 66.8474L1.38526 66.8474L1.38525 95.5994Z" fill="#303030"/>
<path d="M1.38525 57.5726L0.692437 57.5726C0.309806 57.5726 -0.000377041 57.2611 -0.000377007 56.877L-0.000374625 29.5162C-0.000374591 29.1321 0.309809 28.8206 0.69244 28.8206L1.38526 28.8206L1.38525 57.5726Z" fill="#333333"/>
<path d="M1.38525 14.9084L0.692439 14.9084C0.309809 14.9084 -0.000375004 14.597 -0.00037497 14.2128L-0.000373799 0.764357C-0.000373766 0.380182 0.30981 0.0687465 0.69244 0.0687465L1.38526 0.0687466L1.38525 14.9084Z" fill="#333333"/>
</svg>
