<svg width="9" height="8" viewBox="0 0 9 8" fill="none" xmlns="http://www.w3.org/2000/svg">
<path fill-rule="evenodd" clip-rule="evenodd" d="M4.31659 7.54961C6.35728 7.54961 8.01159 5.88862 8.01159 3.83969C8.01159 1.79075 6.35728 0.129761 4.31659 0.129761C2.27589 0.129761 0.621582 1.79075 0.621582 3.83969C0.621582 5.88862 2.27589 7.54961 4.31659 7.54961Z" fill="#262C2D"/>
<path fill-rule="evenodd" clip-rule="evenodd" d="M4.31621 6.1584C5.59165 6.1584 6.62559 5.12029 6.62559 3.8397C6.62559 2.55912 5.59165 1.521 4.31621 1.521C3.04078 1.521 2.00684 2.55912 2.00684 3.8397C2.00684 5.12029 3.04078 6.1584 4.31621 6.1584Z" fill="#121515"/>
<path opacity="0.4" fill-rule="evenodd" clip-rule="evenodd" d="M4.31663 3.37634C4.5716 3.37634 4.77829 3.16862 4.77829 2.91238C4.77829 2.65615 4.5716 2.44843 4.31663 2.44843C4.06167 2.44843 3.85498 2.65615 3.85498 2.91238C3.85498 3.16862 4.06167 3.37634 4.31663 3.37634Z" fill="#636F73"/>
</svg>
