<svg width="14" height="7" viewBox="0 0 14 7" fill="none" xmlns="http://www.w3.org/2000/svg">
<path d="M2.3 6.12093C3.55826 6.12093 4.30567 5.13695 4.30567 3.4707C4.30567 2.84328 4.18568 2.31529 3.95597 1.9073C3.6234 1.27303 3.05084 0.930176 2.32743 0.930176C1.25087 0.930176 0.489746 1.65359 0.489746 2.66843C0.489746 3.62155 1.17545 4.31411 2.11829 4.31411C2.6977 4.31411 3.16741 4.04326 3.40055 3.57355H3.41083C3.41083 3.57355 3.42455 3.57355 3.42798 3.57355C3.43483 3.57355 3.45883 3.57355 3.45883 3.57355C3.45883 4.70496 3.03027 5.38038 2.30685 5.38038C1.88172 5.38038 1.55258 5.14724 1.43944 4.77353H0.558316C0.705742 5.58609 1.39487 6.12093 2.3 6.12093ZM2.33085 3.61127C1.76172 3.61127 1.35716 3.2067 1.35716 2.641C1.35716 2.08901 1.78229 1.6673 2.33428 1.6673C2.88627 1.6673 3.31141 2.09587 3.31141 2.65471C3.31141 3.2067 2.89656 3.61127 2.33085 3.61127Z" fill="black"/>
<path d="M5.75264 6.07293C6.07835 6.07293 6.3012 5.8398 6.3012 5.53123C6.3012 5.21924 6.07835 4.98953 5.75264 4.98953C5.43036 4.98953 5.20408 5.21924 5.20408 5.53123C5.20408 5.8398 5.43036 6.07293 5.75264 6.07293ZM5.75264 3.50156C6.07835 3.50156 6.3012 3.27185 6.3012 2.96328C6.3012 2.65129 6.07835 2.42158 5.75264 2.42158C5.43036 2.42158 5.20408 2.65129 5.20408 2.96328C5.20408 3.27185 5.43036 3.50156 5.75264 3.50156Z" fill="black"/>
<path d="M9.51042 6.00094H10.3573V5.07867H11.0258V4.33125H10.3573V1.0536H9.10929C8.23502 2.37015 7.53903 3.4707 7.09332 4.29011V5.07867H9.51042V6.00094ZM7.91274 4.3004C8.48873 3.28556 9.003 2.473 9.47614 1.77359H9.52413V4.35182H7.91274V4.3004Z" fill="black"/>
<path d="M12.9116 6.00094H13.7962V1.0536H12.9151L11.6225 1.95873V2.809L12.8533 1.94501H12.9116V6.00094Z" fill="black"/>
</svg>
