<svg width="898" height="149" viewBox="0 0 898 149" fill="none" xmlns="http://www.w3.org/2000/svg">
<g filter="url(#filter0_dd_13_6113)">
<path d="M524.143 82.8552C463.31 76.8749 412.546 56.5241 360.11 52.8091C335.795 50.6901 309.387 50.9007 285.18 53.2258C260.697 55.0236 239.97 58.7316 217.321 61.8677C195.084 64.9455 173.542 68.5115 150.42 70.9193C126.949 73.3645 102.634 74.8699 78.3874 76.2752C73.5635 76.5394 68.5223 76.6931 63.6613 76.9352L18.1981 79.1234L18.1692 68.818C162.91 78.4011 275.821 30.1557 421.885 42.1239C477.71 46.697 517.094 53.6084 578.821 52.1945C651.081 50.5401 690.614 35.3127 749.742 25.5359C791.298 18.6651 843.335 19.4215 878.802 29.5019L878.873 54.6491C858.938 50.2527 837.962 48.2496 813.533 48.6497C807.74 48.7437 802.509 49.1597 796.882 49.5213C738.71 53.2505 708.407 69.7765 659.592 78.5583C615.082 86.5652 572.641 87.6218 524.154 82.8552L524.143 82.8552Z" fill="#85CCFF"/>
<path d="M18.1624 68.1994L18.1329 57.6879C59.5045 64.1273 104.893 63.7349 147.184 58.1501C218.432 48.7405 314.712 21.6143 391.092 23.4538C430.983 24.4155 464.175 34.3961 500.647 38.6049C630.659 53.6113 689.162 7.81396 803.49 10.3399C836.498 11.0688 858.258 17.3556 878.785 24.9687L878.796 29.0911C840.2 18.2993 787.775 18.4355 743.978 26.1723C672.521 38.7929 640.165 53.3117 548.719 51.8683C484.758 50.8584 428.961 39.0331 366.163 39.8076C244.132 41.3132 143.439 77.2186 18.1677 68.1994L18.1624 68.1994Z" fill="url(#paint0_linear_13_6113)"/>
<path d="M18.1638 68.8165L18.1621 68.1979C143.433 77.2171 244.127 41.3101 366.157 39.8061C428.955 39.0316 484.752 50.8569 548.714 51.8668C640.159 53.3102 672.516 38.7914 743.972 26.1708C787.769 18.4356 840.195 18.2978 878.791 29.0896L878.792 29.502C843.324 19.4216 791.288 18.6652 749.731 25.536C690.604 35.3128 651.07 50.5402 578.811 52.1946C517.083 53.6069 477.699 46.6971 421.875 42.124C275.81 30.1558 162.899 78.4012 18.1585 68.8181L18.1638 68.8165Z" fill="#D8E2E4"/>
<path d="M813.522 48.6498C837.951 48.2512 858.927 50.2527 878.863 54.6491L878.864 55.0615C859.616 50.7171 837.185 48.6245 813.522 48.6498Z" fill="#D8CEC1"/>
<path d="M18.202 75C33.4627 74.4638 48.5225 77.6883 63.6557 76.9352C68.5167 76.6931 73.5579 76.5394 78.3818 76.2752C90.0026 75.6398 101.683 75.331 113.282 74.5275C149.486 72.0195 184.764 67.4775 217.315 61.8677C239.964 58.7316 260.692 55.0236 285.175 53.2258C309.658 51.4281 335.51 51.0668 360.104 52.8091C412.541 56.5241 463.305 76.875 524.138 82.8552C568.94 88.2477 616.526 86.5405 658.298 79.1806C701.296 71.6047 730.735 58.0331 776.06 51.6419L796.865 49.523C802.488 49.163 807.724 48.7469 813.517 48.6514C837.18 48.6277 859.611 50.7187 878.858 55.0631L878.939 83.9203C870.898 81.9903 863.533 79.6936 854.905 78.0095C770.549 61.5456 731.927 88.7557 664.114 98.7457C541.082 116.873 444.176 82.8372 338.057 70.5982C233.859 58.5806 159.867 86.277 61.5 88C48.783 88.2229 43.4922 84.2215 31 83.5L18.202 75Z" fill="#FB6602"/>
<path d="M878.946 84.3312L879.01 107.21C871.466 105.042 865.2 102.392 857.539 100.263C766.582 74.9966 717.242 113.403 637.93 120.461C498.605 132.86 420.153 93.8637 300.959 82.4514C265.415 79.0474 227.915 77.9504 190.797 79.257L145.653 82.1661C205.32 74.0231 267.492 63.2749 333.587 70.4046C440.857 81.9742 536.052 116.901 660.932 99.5795C699.16 94.2773 722.347 85.0551 755.656 78.2885C802.654 68.7424 840.144 73.7335 878.957 84.3311L878.946 84.3312Z" fill="#FFD36E"/>
<path d="M18.1936 79.3294L18.193 79.1232L63.6562 76.935C48.5178 77.6898 33.4491 78.7948 18.1936 79.3294Z" fill="#D2A07E"/>
<path d="M524.144 82.8551C572.636 87.6217 615.072 86.5651 659.582 78.5582C708.397 69.7764 738.705 53.2504 796.871 49.5212L776.066 51.6402C730.741 58.0313 701.302 71.603 658.304 79.1789C616.532 86.5388 568.946 88.246 524.144 82.8535L524.144 82.8551Z" fill="#EDE5D8"/>
<path d="M78.3823 76.275C102.629 74.8697 126.943 73.3643 150.415 70.9191C173.537 68.5113 195.079 64.9453 217.316 61.8675C184.765 67.4773 149.487 72.0194 113.282 74.5273C101.683 75.3308 90.0031 75.6396 78.3823 76.275Z" fill="#D2BBA2"/>
<path d="M285.18 53.2257C309.387 50.9005 335.795 50.6899 360.11 52.8089C335.516 51.0666 309.701 51.4263 285.18 53.2257Z" fill="#D2A07E"/>
</g>
<defs>
<filter id="filter0_dd_13_6113" x="0.132812" y="0.238892" width="896.877" height="148.628" filterUnits="userSpaceOnUse" color-interpolation-filters="sRGB">
<feFlood flood-opacity="0" result="BackgroundImageFix"/>
<feColorMatrix in="SourceAlpha" type="matrix" values="0 0 0 0 0 0 0 0 0 0 0 0 0 0 0 0 0 0 127 0" result="hardAlpha"/>
<feOffset dy="4"/>
<feGaussianBlur stdDeviation="2"/>
<feColorMatrix type="matrix" values="0 0 0 0 0 0 0 0 0 0 0 0 0 0 0 0 0 0 0.3 0"/>
<feBlend mode="normal" in2="BackgroundImageFix" result="effect1_dropShadow_13_6113"/>
<feColorMatrix in="SourceAlpha" type="matrix" values="0 0 0 0 0 0 0 0 0 0 0 0 0 0 0 0 0 0 127 0" result="hardAlpha"/>
<feMorphology radius="6" operator="dilate" in="SourceAlpha" result="effect2_dropShadow_13_6113"/>
<feOffset dy="8"/>
<feGaussianBlur stdDeviation="6"/>
<feColorMatrix type="matrix" values="0 0 0 0 0 0 0 0 0 0 0 0 0 0 0 0 0 0 0.15 0"/>
<feBlend mode="normal" in2="effect1_dropShadow_13_6113" result="effect2_dropShadow_13_6113"/>
<feBlend mode="normal" in="SourceGraphic" in2="effect2_dropShadow_13_6113" result="shape"/>
</filter>
<linearGradient id="paint0_linear_13_6113" x1="878.823" y1="38.6749" x2="18.0862" y2="41.0935" gradientUnits="userSpaceOnUse">
<stop stop-color="#0066CC"/>
<stop offset="1" stop-color="#1A365D"/>
</linearGradient>
</defs>
</svg>
