<svg width="32" height="6" viewBox="0 0 32 6" fill="none" xmlns="http://www.w3.org/2000/svg">
<path opacity="0.35" d="M22.7656 0.507874H27.7588C28.9476 0.507874 29.911 1.47149 29.9111 2.66022C29.9111 3.84906 28.9476 4.81354 27.7588 4.81354H22.7656C21.5769 4.8134 20.6133 3.84898 20.6133 2.66022C20.6134 1.47157 21.577 0.50801 22.7656 0.507874Z" stroke="black"/>
<path opacity="0.4" d="M30.8799 1.72424V3.59666C31.2566 3.43808 31.5015 3.06917 31.5015 2.66045C31.5015 2.25174 31.2566 1.88283 30.8799 1.72424" fill="black"/>
<path d="M21.0493 2.27743C21.0493 1.54105 21.6463 0.944092 22.3826 0.944092H28.1419C28.8783 0.944092 29.4752 1.54105 29.4752 2.27743V3.04353C29.4752 3.77991 28.8783 4.37686 28.1419 4.37686H22.3827C21.6463 4.37686 21.0493 3.77991 21.0493 3.04353V2.27743Z" fill="black"/>
<path d="M13.148 3.93942C13.7451 3.43439 14.6202 3.43439 15.2173 3.93942C15.2471 3.96653 15.2643 4.00462 15.2651 4.04489C15.266 4.08538 15.2501 4.12492 15.2212 4.15329L14.2866 5.09665C14.2593 5.12427 14.2219 5.13949 14.1831 5.13962C14.1441 5.13962 14.106 5.12438 14.0786 5.09665L13.144 4.15329C13.1152 4.1249 13.0992 4.08538 13.1001 4.04489C13.101 4.00462 13.1182 3.96651 13.148 3.93942ZM11.9009 2.68063C13.1873 1.48399 15.1789 1.48403 16.4653 2.68063C16.4943 2.70865 16.5117 2.74677 16.5122 2.78708C16.5126 2.82745 16.4967 2.86683 16.4683 2.89548L15.9272 3.44137C15.8715 3.49701 15.7812 3.49855 15.7241 3.4443C15.3018 3.06191 14.7528 2.84966 14.1831 2.84958C13.6136 2.84981 13.0643 3.06202 12.6421 3.4443C12.585 3.49856 12.4947 3.49708 12.439 3.44137L11.8989 2.89548C11.8704 2.86687 11.8546 2.82747 11.855 2.78708C11.8554 2.74678 11.8719 2.70863 11.9009 2.68063ZM10.6528 1.42477C12.6259 -0.466122 15.7393 -0.466148 17.7124 1.42477C17.7409 1.4528 17.757 1.49129 17.7573 1.53122C17.7576 1.57128 17.7416 1.61022 17.7134 1.63864L17.1724 2.18454C17.1167 2.24053 17.0259 2.24152 16.9692 2.18649C16.2176 1.47189 15.2202 1.07337 14.1831 1.07321C13.1457 1.07321 12.1478 1.47174 11.396 2.18649C11.3394 2.24173 11.2486 2.24066 11.1929 2.18454L10.6519 1.63864C10.6236 1.61019 10.6076 1.57128 10.6079 1.53122C10.6082 1.49124 10.6243 1.45279 10.6528 1.42477Z" fill="black"/>
<path d="M1.2334 3.28491C1.49178 3.28508 1.70117 3.49426 1.70117 3.75269V4.68921C1.70097 4.94746 1.49166 5.15681 1.2334 5.15698H0.764648C0.506398 5.1568 0.297076 4.94746 0.296875 4.68921V3.75269C0.296875 3.49427 0.506274 3.28509 0.764648 3.28491H1.2334ZM3.41797 2.34839C3.67623 2.3486 3.88561 2.55788 3.88574 2.81616V4.68921C3.88554 4.94743 3.67619 5.15677 3.41797 5.15698H2.94922C2.69093 5.15685 2.48165 4.94748 2.48145 4.68921V2.81616C2.48158 2.55783 2.69089 2.34852 2.94922 2.34839H3.41797ZM5.60254 1.25562C5.86085 1.25587 6.07031 1.466 6.07031 1.72437V4.68921C6.07011 4.94741 5.86073 5.15673 5.60254 5.15698H5.13379C4.87546 5.15689 4.66622 4.94751 4.66602 4.68921V1.72437C4.66602 1.46589 4.87534 1.25571 5.13379 1.25562H5.60254ZM7.78613 0.163818C8.04455 0.163818 8.2547 0.373217 8.25488 0.631592V4.68921C8.25468 4.94757 8.04454 5.15698 7.78613 5.15698H7.31836C7.06 5.15694 6.85079 4.94754 6.85059 4.68921V0.631592C6.85077 0.373246 7.05998 0.163865 7.31836 0.163818H7.78613Z" fill="black"/>
</svg>
