<?xml version="1.0" encoding="UTF-8"?>
<svg id="Layer_2" data-name="Layer 2" xmlns="http://www.w3.org/2000/svg" viewBox="0 0 349.51 141.28">
  <defs>
    <style>
      .cls-1 {
        fill: #85ccff;
      }

      .cls-2 {
        fill: #2f394d;
      }
    </style>
  </defs>
  <g id="Layer_1-2" data-name="Layer 1">
    <g>
      <g>
        <path class="cls-1" d="M154.14,132.22c-.17-.9-.55-1.66-.96-2.28-.77-1.21-2.05-2.28-3.26-2.84-1.23-.61-2.48-.94-3.71-1.13-1.22-.19-2.47-.25-3.66-.18-1.17.05-2.33.18-3.48.35-3.78.62-7.37,1.87-10.73,3.53-1.68-1.59-3.23-3.37-4.66-5.28-1.24-1.66-2.39-3.43-3.49-5.25-1.11-1.84-2.18-3.72-3.09-5.55-1.88-3.81-3.63-7.85-5.34-11.88-6.77-15.93-12.99-32.21-19.33-48.4,7.28,1.06,14.49,2.91,21.51,5.61.19.07.41,0,.52-.17.13-.2.07-.46-.13-.59-7.13-4.57-15.23-7.62-23.62-9.33L73.16,3.14c-.5-1.28-1.55-2.37-2.95-2.86-2.55-.89-5.34.45-6.23,3v.02c-5.71,16.31-11.98,32.51-18.6,48.52-10.94,3.71-21.37,9.69-29.53,18.28-4.19,4.38-7.77,9.39-10.55,14.82-.74,1.34-1.34,2.74-1.94,4.14-.63,1.39-1.17,2.82-1.67,4.26-.25.72-.48,1.44-.7,2.17-.22.73-.43,1.41-.64,2.39-.39,1.83-.49,3.82-.15,5.79.64,3.97,3.11,7.53,6.31,9.69,3.19,2.2,7.19,3.22,11.2,2.63,4.04-.54,7.78-3.11,9.94-6.3.25-.38.57-.84.75-1.16l.55-.94,1.11-1.89,2.19-3.79c5.67-10.18,10.71-20.6,15.49-31.12,2.35-5.17,4.63-10.36,6.83-15.58,8.54-2.31,17.48-3.25,26.38-2.95.4.01.79.05,1.19.06.5,1.22.98,2.44,1.48,3.66,3.33,8.21,6.78,16.37,10.28,24.51,3.53,8.14,7.04,16.28,10.85,24.34,1.92,4.03,3.86,8.04,6.07,12.06,1.15,2.07,2.36,3.99,3.62,5.88,1.27,1.91,2.61,3.79,4.1,5.61,1.3,1.6,2.74,3.13,4.28,4.57-2.59,1.84-4.98,3.94-7.1,6.27-.14.16-.15.41,0,.58.16.17.43.18.6.02,2.41-2.17,5.07-4.08,7.88-5.66,1.59,1.34,3.28,2.58,5.14,3.62,4.26,2.38,9.16,3.78,14.26,3.42,2.76-.31,5.05-1.14,7.35-2.67,1.1-.8,2.29-1.84,2.95-3.57.32-.85.41-1.87.23-2.76ZM24.36,97.57l-2.04,3.69-1.01,1.85-.51.93c-.17.31-.27.43-.4.66-1.03,1.56-2.38,2.52-4.05,2.83-1.66.31-3.63-.06-5.18-1.08-1.57-1-2.66-2.5-2.99-4.21-.17-.86-.18-1.78,0-2.75.07-.42.24-1.12.43-1.77l.57-1.93c.4-1.28.84-2.55,1.36-3.78.49-1.25.98-2.5,1.6-3.69,2.31-4.84,5.33-9.34,8.93-13.36,5.74-6.45,13.02-11.48,20.99-15.17-1,2.38-1.99,4.77-3,7.14-4.55,10.42-9.35,20.73-14.68,30.66ZM57.28,48.72c1.33-3.26,2.65-6.53,3.92-9.81,2.61-6.68,5.12-13.38,7.58-20.11,3.73,9.55,7.52,19.08,11.37,28.58-7.62-.54-15.32-.08-22.87,1.35ZM149.81,133.41c-.16.34-.69.87-1.4,1.29-1.43.84-3.47,1.43-5.11,1.49-3.76.04-7.68-1.24-10.99-3.38-.69-.44-1.35-.93-1.99-1.44,2.97-1.08,6.04-1.79,9.14-2.04,1.05-.06,2.09-.11,3.14-.08,1.02,0,1.99.13,2.93.35,1.91.44,3.5,1.28,4.13,2.54.35.66.31.96.16,1.26Z"/>
        <path class="cls-1" d="M107.45,128.28c-.34-.65-1.13-.9-1.78-.56-5.05,2.63-10.36,4.71-15.84,5.96-1.84.41-3.7.7-5.57.87,3.87-2.05,7.44-4.81,10.24-8.42,2.02-2.6,3.57-5.61,4.5-8.8.93-3.16,1.34-6.55.99-9.92-.62-6.74-4.1-13.08-9.15-17.42-2.53-2.2-5.44-3.88-8.38-5.16-2.95-1.25-5.95-2.13-8.87-2.85-2.92-.72-5.78-1.3-8.51-1.93-1.46-.34-2.49-.6-3.61-1.03-1.11-.43-2.19-.95-3.2-1.57-2.02-1.23-3.8-2.81-4.99-4.57-2.22-3.32-2.12-7.05.24-10.3,4.25-5.86,12.38-9.77,19.49-10.24l.12-.29c.78-.15,1.45-.74,1.64-1.57.26-1.11-.44-2.23-1.55-2.48-3.15-.73-6.39-.28-9.54.13-3.16.41-6.27.81-9.29,2.16-3,1.38-5.98,3.22-8.48,6.05-1.24,1.41-2.32,3.11-3.03,5.04-.72,1.93-1.01,4.08-.87,6.14.14,2.05.66,4.02,1.4,5.73.78,1.73,1.59,3.24,2.68,4.74,2.15,2.97,4.9,5.19,7.85,6.89,1.48.84,3.03,1.55,4.63,2.12,1.59.58,3.38.97,4.74,1.24,2.91.59,5.73,1.09,8.44,1.68,2.7.59,5.29,1.3,7.69,2.23,2.38.96,4.55,2.17,6.44,3.7,3.79,3.09,6.37,7.55,6.95,12.34.31,2.39.08,4.84-.54,7.24-.62,2.38-1.7,4.62-3.17,6.62-2.94,4.03-7.41,7.04-12.35,8.93-2.3.88-4.71,1.51-7.17,1.94-3.87-1.43-7.41-3.64-10.39-6.51-.91-1.01-1.88-2-2.74-3.01-.82-1.03-1.6-2.2-2.41-3.4-1.62-2.39-3.27-4.93-5.66-7.19-1.2-1.11-2.63-2.16-4.38-2.8-1.72-.63-3.78-.85-5.71-.24-1.93.56-3.59,1.83-4.7,3.42-1.12,1.59-1.71,3.49-1.78,5.38-.07,3.81,1.65,7.05,3.73,9.57,2.14,2.47,4.62,4.49,7.35,6.08,5.46,3.18,11.61,4.73,17.75,5.14,5.01.32,10.07-.15,14.97-1.45,5.05.48,10.12-.01,14.93-1.22,5.77-1.47,11.23-3.8,16.37-6.65.62-.35.86-1.13.53-1.76ZM45.57,129.54c-2.3-1.25-4.39-2.89-6.09-4.74-1.63-1.84-2.73-4.08-2.73-6.12,0-1.97,1.21-3.9,2.93-4.42,1.7-.6,3.85.18,5.69,1.86,1.88,1.67,3.51,3.95,5.18,6.29.84,1.18,1.69,2.39,2.7,3.6,1.03,1.17,2.12,2.21,3.18,3.31,1.73,1.59,3.63,2.98,5.66,4.17-.39,0-.77.03-1.16.01-5.38-.21-10.76-1.44-15.37-3.98Z"/>
      </g>
      <g>
        <g>
          <path class="cls-2" d="M151.25,43.77l-9.12-21.42h-5.71v.34c1.42,0,2.33.37,3.14,1.62l-8.28,19.46c-1.28,3.04-2.3,3.92-5.03,3.92v.34h6.99v-.34c-2.74,0-2.87-.88-1.59-3.92l3.58-8.45h9.22l3.58,8.45c1.32,3.11,1.15,3.92-.95,3.92v.34h8.48v-.34c-2.09,0-3.01-.81-4.32-3.92ZM135.41,34.99l4.39-10.34c.3.54.61,1.18.95,1.96l3.55,8.38h-8.88Z"/>
          <path class="cls-2" d="M185.72,43.13c0,4.09-3.24,4.56-7.6,4.56h-6.11v-21.08c0-3.24.54-3.92,2.64-3.92v-.34h-8.24v.34c2.09,0,2.64.68,2.64,3.92v17.16c0,3.24-.54,3.92-2.64,3.92v.34h21.21c-.68-.57-1.55-2.57-1.55-4.9h-.34Z"/>
          <path class="cls-2" d="M194.92,27.25h.34c0-4.09,3.24-4.56,7.6-4.56h.71v21.08c0,3.24-.54,3.92-2.64,3.92v.34h8.24v-.34c-2.09,0-2.63-.68-2.63-3.92v-21.08h.71c4.36,0,7.6.47,7.6,4.56h.34c0-2.33.88-4.32,1.55-4.9h-23.37c.68.57,1.55,2.57,1.55,4.9Z"/>
          <path class="cls-2" d="M228.07,22.69c2.1,0,2.64.68,2.64,3.92v17.16c0,3.24-.54,3.92-2.64,3.92v.34h8.24v-.34c-2.09,0-2.64-.68-2.64-3.92v-17.16c0-3.24.54-3.92,2.64-3.92v-.34h-8.24v.34Z"/>
          <path class="cls-2" d="M260.71,21.82c-7.36,0-12.9,6.01-12.9,13.38s5.54,13.38,12.9,13.38,12.9-6.01,12.9-13.38-5.54-13.38-12.9-13.38ZM260.71,48.23c-5.71,0-9.8-5.14-9.8-13.04s4.09-13.04,9.8-13.04,9.8,5.13,9.8,13.04-4.09,13.04-9.8,13.04Z"/>
          <path class="cls-2" d="M305.25,43.77l-4.66-8.07c-1.05.3-2.43.14-3.28-.37,6.25-.17,10.24-2.67,10.24-6.49s-4.26-6.49-10.88-6.49h-11.55v.34c2.09,0,2.64.68,2.64,3.92v17.16c0,3.24-.54,3.92-2.64,3.92v.34h8.24v-.34c-2.09,0-2.64-.68-2.64-3.92v-8.45h6.18l4.86,8.45c1.66,2.84,1.79,3.92-.3,3.92v.34h8.75v-.34c-2.09,0-3.34-1.08-4.97-3.92ZM296.67,34.99h-5.94v-12.29h5.94c4.73,0,7.77,2.4,7.77,6.15s-3.04,6.15-7.77,6.15Z"/>
          <path class="cls-2" d="M345.19,43.77l-9.12-21.42h-5.71v.34c1.42,0,2.33.37,3.14,1.62l-8.28,19.46c-1.28,3.04-2.3,3.92-5.03,3.92v.34h6.99v-.34c-2.74,0-2.87-.88-1.59-3.92l3.58-8.45h9.22l3.58,8.45c1.32,3.11,1.15,3.92-.95,3.92v.34h8.48v-.34c-2.09,0-3.01-.81-4.32-3.92ZM329.35,34.99l4.39-10.34c.3.54.61,1.18.95,1.96l3.55,8.38h-8.88Z"/>
        </g>
        <g>
          <path class="cls-2" d="M177,66.26c0-1.42,1.55-2.35,4.06-2.35,2.78,0,4.38,1.68,4.38,3.93h.19c0-1.29.48-2.39.86-2.7-1.14-.69-3.04-1.42-5.42-1.42-3.71,0-5.29,1.51-5.29,3.52,0,4.98,9.99,4.04,9.99,8.14,0,1.58-1.77,2.91-4.72,2.91s-5.27-2.05-5.27-4.31h-.19c0,1.29-.48,2.39-.86,2.7,1.14.69,3.41,1.79,6.32,1.79,4.06,0,5.95-2.11,5.95-4.08,0-4.34-9.99-3.76-9.99-8.14Z"/>
          <path class="cls-2" d="M203.21,64.21c1.51,0,1.42.6.32,2.16l-3.08,4.44-3.09-4.44c-1.06-1.53-1.23-2.16-.07-2.16v-.19h-4.88v.19c1.16,0,1.92.63,2.98,2.16l3.47,4.99v4.47c0,1.79-.3,2.16-1.45,2.16v.19h4.55v-.19c-1.16,0-1.45-.37-1.45-2.16v-4.77l3.26-4.7c1.1-1.57,1.83-2.16,3.34-2.16v-.19h-3.88v.19Z"/>
          <path class="cls-2" d="M214.02,66.26c0-1.42,1.55-2.35,4.06-2.35,2.78,0,4.38,1.68,4.38,3.93h.19c0-1.29.48-2.39.86-2.7-1.14-.69-3.04-1.42-5.42-1.42-3.71,0-5.29,1.51-5.29,3.52,0,4.98,9.99,4.04,9.99,8.14,0,1.58-1.77,2.91-4.72,2.91s-5.27-2.05-5.27-4.31h-.19c0,1.29-.48,2.39-.86,2.7,1.14.69,3.41,1.79,6.32,1.79,4.06,0,5.95-2.11,5.95-4.08,0-4.34-9.99-3.76-9.99-8.14Z"/>
          <path class="cls-2" d="M230.56,66.73h.19c0-2.26,1.79-2.52,4.19-2.52h.39v11.63c0,1.79-.3,2.16-1.45,2.16v.19h4.55v-.19c-1.16,0-1.45-.37-1.45-2.16v-11.63h.39c2.4,0,4.19.26,4.19,2.52h.19c0-1.29.48-2.39.86-2.7h-12.9c.37.32.86,1.42.86,2.7Z"/>
          <path class="cls-2" d="M255.31,64.21c2.4,0,4.19.26,4.19,2.52h.19c0-1.29.48-2.39.86-2.7h-11.7v.19c1.16,0,1.45.37,1.45,2.16v9.47c0,1.79-.3,2.16-1.45,2.16v.19h11.7c-.37-.32-.86-1.42-.86-2.7h-.19c0,2.26-1.79,2.52-4.19,2.52h-3.37v-6.82h2.03c1.79,0,2.16,1.04,2.16,2.57h.19v-5.33h-.19c0,1.53-.37,2.57-2.16,2.57h-2.03v-6.78h3.37Z"/>
          <path class="cls-2" d="M274.74,74.65l-5.22-10.62h-3.09v.19c1.51,0,1.83.37,1.83,2.16v9.47c0,1.79-.32,2.16-1.83,2.16v.19h3.84v-.19c-1.51,0-1.83-.37-1.83-2.16v-10.25l5.44,10.94h.2l5.44-12.02v11.33c0,1.79-.3,2.16-1.45,2.16v.19h4.55v-.19c-1.16,0-1.45-.37-1.45-2.16v-9.47c0-1.79.3-2.16,1.45-2.16v-.19h-3.09l-4.79,10.62Z"/>
          <path class="cls-2" d="M291.05,66.26c0-1.42,1.55-2.35,4.06-2.35,2.78,0,4.38,1.68,4.38,3.93h.19c0-1.29.48-2.39.86-2.7-1.14-.69-3.04-1.42-5.42-1.42-3.71,0-5.29,1.51-5.29,3.52,0,4.98,9.99,4.04,9.99,8.14,0,1.58-1.77,2.91-4.72,2.91s-5.27-2.05-5.27-4.31h-.19c0,1.29-.48,2.39-.86,2.7,1.14.69,3.41,1.79,6.32,1.79,4.06,0,5.95-2.11,5.95-4.08,0-4.34-9.99-3.76-9.99-8.14Z"/>
        </g>
      </g>
    </g>
  </g>
</svg>